<mxfile host="65bd71144e">
    <diagram id="leo3fohcpxAp7H4ce3_a" name="ページ1">
        <mxGraphModel dx="1046" dy="577" grid="1" gridSize="10" guides="1" tooltips="1" connect="1" arrows="1" fold="1" page="1" pageScale="1" pageWidth="400" pageHeight="400" math="0" shadow="0">
            <root>
                <mxCell id="0"/>
                <mxCell id="1" parent="0"/>
                <mxCell id="2" value="&lt;font style=&quot;font-size: 240px;&quot;&gt;M&lt;/font&gt;" style="ellipse;whiteSpace=wrap;html=1;fillColor=#FFB0A8;strokeColor=none;fontColor=#FF6557;fontSize=240;horizontal=1;fontStyle=1" parent="1" vertex="1">
                    <mxGeometry width="400" height="400" as="geometry"/>
                </mxCell>
            </root>
        </mxGraphModel>
    </diagram>
</mxfile>